<svg xmlns="http://www.w3.org/2000/svg" viewBox="0 0 512 512">

  <!-- Main white icon -->
  <g fill="#ffffff">

    <path d="M194.33,352.22c-.45-.63-.47-1.39-.52-2.13-.77-10.49-.48-25.32,0-35.96.7-15.5,5.57-28.62,17.82-38.55,19.79-16.05,43.49-9.2,67.08-10.64,25.59,3.5,41.98,22.43,43.13,47.98.57,12.62-.25,25.57-.2,38.17-6.48,3.94-14.4,6.29-21.81,8.03-34.91,8.23-71.66,3.61-105.5-6.91Z"/>

    <path d="M233.34,196.63c23.27-20.18,59.71-5.36,61.9,25.27,1.98,27.67-26.19,47.88-51.92,37.13-25.41-10.61-30.84-44.3-9.98-62.39Z"/>

  </g>

  <!-- Light grey parts -->
  <g fill="#ffffff">

    <path d="M384,312.72c-16.35,7.86-34.75,11.02-52.79,11.66-.81-.56-.23-14.05-.39-16.35-1.4-20.35-14.99-38.79-33.25-47.22-2.2-1.02-4.53-1.84-6.83-2.59-.02-1.05,3.76-4.71,4.67-5.95,4.17-5.65,6.93-12.25,8.23-19.14.21-1.14.68-6.56.99-6.77,11.41.23,23.67-.93,34.99-.17,16.44,1.09,32.04,11.89,39.27,26.52,2.66,5.38,3.57,10.61,5.1,16.34v43.68Z"/>

    <path d="M211.41,226.18c0,9.33,3.66,19.06,9.24,26.5,1.2,1.61,3.3,3.33,4.26,4.72.24.35.57.4.4,1.02-17.78,4.53-33.16,20.45-38.24,37.96-2.67,9.18-2.35,18.28-2.24,27.76-19.41-.76-38.25-5.44-56.83-10.63l.09-44.17c2.76-22.85,21.33-41.75,44.66-43.19,12.6-.78,25.99.62,38.67.02Z"/>

    <path d="M223,193.66c-3.26,3.66-7.28,10.36-8.92,14.97-1.07,2.99-1.34,6.27-2.68,9.17-4.27,2.46-9.22,4.39-14.15,5.06-34.84,4.75-56.59-36.62-32.68-62.41,23.65-25.51,66.37-7.03,64.83,27.15-.14.72-5.37,4.89-6.41,6.05Z"/>

    <path d="M304.32,219.98c-.91-6.91-3.04-13.72-6.69-19.65-3.78-6.16-9.29-10.96-14.99-15.26.57-22.95,21.41-39.93,44.11-35.85,20.25,3.63,33.76,23.27,30.07,43.51-4.36,23.89-30.34,36.99-52.5,27.25Z"/>

  </g>

</svg>